<?xml version="1.0" standalone="no"?>
<!DOCTYPE svg PUBLIC "-//W3C//DTD SVG 20010904//EN"
 "http://www.w3.org/TR/2001/REC-SVG-20010904/DTD/svg10.dtd">
<svg version="1.0" xmlns="http://www.w3.org/2000/svg"
 width="674.000000pt" height="674.000000pt" viewBox="0 0 674.000000 674.000000"
 preserveAspectRatio="xMidYMid meet">
<metadata>
Created by potrace 1.11, written by Peter Selinger 2001-2013
</metadata>
<g transform="translate(0.000000,674.000000) scale(0.100000,-0.100000)"
fill="#000000" stroke="none">
<path d="M1327 5364 c-1 -1 -112 -5 -247 -8 -135 -4 -330 -9 -435 -13 -104 -3
-207 -6 -227 -6 l-38 -1 0 -1963 0 -1963 78 -1 c103 -1 310 -5 697 -13 l320
-7 2 63 c4 192 4 260 -1 265 -3 3 -38 7 -78 9 -40 1 -145 6 -233 9 -88 4 -168
7 -178 7 -17 -1 -18 48 -13 1226 3 675 6 1406 7 1624 1 280 5 400 13 407 11 9
83 14 351 27 72 3 131 7 133 8 5 6 8 239 2 284 l-5 47 -73 0 c-41 0 -74 -1
-75 -1z"/>
<path d="M5261 5351 c-10 -7 -11 -315 0 -325 2 -2 65 -7 139 -10 274 -13 324
-17 337 -28 19 -15 19 -3255 1 -3255 -21 0 -349 -16 -393 -18 -22 -1 -54 -3
-72 -4 l-32 -1 3 -142 c2 -79 4 -154 5 -166 l1 -24 278 6 c152 4 396 9 542 12
145 3 266 6 267 8 3 3 9 1313 14 3041 l3 879 -35 2 c-57 3 -421 14 -659 20
-124 2 -262 6 -306 8 -45 2 -87 0 -93 -3z"/>
<path d="M2860 4815 c-47 -7 -105 -16 -130 -20 -25 -3 -78 -15 -119 -26 -41
-10 -82 -19 -92 -19 -43 0 -286 -115 -383 -182 -163 -113 -476 -430 -476 -484
0 -8 -4 -14 -8 -14 -5 0 -19 -21 -32 -47 -13 -27 -34 -65 -47 -86 -14 -22 -22
-41 -20 -44 3 -2 -5 -26 -18 -51 -13 -26 -26 -68 -30 -94 -4 -27 -11 -48 -14
-48 -4 0 -7 -17 -6 -37 0 -21 -3 -51 -7 -67 -4 -17 -4 -32 0 -35 9 -7 9 -81 0
-81 -4 0 -3 -14 2 -31 5 -18 7 -35 5 -39 -8 -13 14 -207 30 -273 9 -34 28 -87
42 -117 14 -30 32 -73 39 -95 43 -122 220 -420 306 -516 18 -21 41 -48 51 -62
35 -48 172 -176 262 -244 163 -124 310 -201 540 -279 39 -14 71 -25 72 -25 2
0 8 -1 15 -4 7 -2 36 -8 63 -14 28 -5 84 -16 125 -24 42 -9 99 -17 128 -18 28
-2 52 -5 52 -8 0 -3 23 -4 51 -2 36 2 54 -1 60 -10 8 -12 10 -12 18 0 5 8 14
10 22 5 7 -4 29 -7 49 -5 104 8 130 6 130 -9 1 -11 3 -10 11 4 9 15 13 16 20
5 5 -8 9 -9 9 -3 0 7 16 10 42 8 23 -2 46 0 52 3 5 4 22 8 36 9 171 18 241 28
246 35 3 5 16 6 30 3 13 -3 30 -2 37 4 11 9 58 20 100 25 9 1 17 5 17 10 0 4
5 5 11 2 6 -4 13 3 16 15 4 15 11 20 24 17 11 -3 19 -1 19 3 0 5 10 12 21 15
17 6 19 9 8 16 -10 6 -8 9 9 9 13 0 33 11 46 25 14 15 35 25 59 27 19 1 34 5
32 8 -5 9 61 78 107 114 21 15 35 32 32 37 -3 5 0 9 5 9 6 0 11 -5 11 -12 0
-6 10 -1 23 12 12 14 21 28 19 32 -1 5 3 8 9 8 6 0 17 6 24 14 11 10 11 16 2
26 -10 10 -8 12 7 6 22 -8 46 10 46 35 0 10 9 24 20 32 11 8 17 16 14 20 -9 9
46 77 62 77 7 0 16 11 20 25 3 14 10 22 15 19 5 -3 9 2 9 10 0 10 6 13 18 9
15 -6 15 -5 3 10 -11 15 -11 17 2 17 8 0 17 -3 20 -7 2 -5 3 -3 1 2 -2 12 24
52 31 48 3 -2 5 -1 5 2 0 3 12 17 26 30 15 14 23 25 17 25 -5 0 -9 16 -9 35 1
28 4 34 18 29 20 -6 55 24 53 46 0 8 7 22 17 31 10 9 18 24 18 34 0 10 3 16 6
12 9 -9 36 21 29 33 -3 5 -2 10 4 10 14 0 50 62 48 85 -1 12 7 24 21 30 12 5
22 17 22 25 0 13 2 13 11 0 9 -12 10 -11 6 8 -3 12 -2 22 3 22 13 0 42 71 37
91 -3 11 1 26 9 33 12 13 11 15 -8 19 l-23 4 23 2 c16 1 22 7 22 26 0 14 4 25
8 25 4 0 7 16 7 35 -1 20 2 38 7 41 5 3 4 12 -3 20 -9 11 -8 14 5 14 12 0 14
5 8 23 -10 26 -9 38 1 55 5 6 5 12 0 12 -4 0 -9 17 -10 38 -3 61 -13 103 -24
97 -5 -4 -9 6 -9 22 0 15 -6 48 -14 73 -7 25 -11 51 -8 59 3 8 0 11 -7 7 -12
-8 -35 40 -25 55 3 5 0 9 -6 9 -6 0 -8 5 -5 10 3 6 -1 13 -10 16 -11 5 -13 10
-5 19 8 9 6 14 -5 19 -8 3 -15 14 -15 23 0 10 -13 33 -30 51 -16 18 -30 37
-30 42 0 16 -33 80 -42 80 -4 0 -8 6 -8 13 0 7 -11 28 -25 47 -14 19 -25 40
-25 49 0 20 -75 118 -133 172 -50 46 -181 118 -252 138 -22 6 -71 16 -109 21
-38 6 -86 19 -106 29 -21 10 -54 18 -74 17 -27 -1 -35 3 -31 13 4 10 -5 12
-42 7 -27 -3 -107 -5 -180 -5 -106 0 -139 -4 -165 -17 -49 -26 -108 -35 -115
-18 -3 8 -9 14 -15 14 -5 0 -21 11 -36 25 -21 20 -24 27 -13 34 18 12 -3 51
-28 51 -10 0 -32 14 -49 30 -21 19 -26 30 -17 30 8 0 15 4 15 8 0 14 -23 32
-42 32 -10 0 -18 4 -18 9 0 5 -9 12 -20 15 -11 3 -30 9 -42 12 -16 5 -20 3
-15 -10 11 -27 -18 -18 -55 17 -22 21 -59 40 -94 51 -33 10 -88 29 -123 43
-77 32 -217 39 -351 18z"/>
<path d="M4940 2585 c0 -8 4 -15 10 -15 5 0 7 7 4 15 -4 8 -8 15 -10 15 -2 0
-4 -7 -4 -15z"/>
</g>
</svg>
